# xmcd
#
# Track frame offsets: 
#        150
#        14250
#        25125
#        43533
#        60646
#        78281
#        94770
#        112566
#        131966
#        160295
#        176183
#
# Disc length: 2572 seconds
#
# Revision: 0
# Processed by: cddbd v1.5.2PL0 Copyright (c) Steve Scherf et al.
# Submitted via: ExactAudioCopyFreeDBPlugin 1.0
#
DISCID=830a0a0b
DTITLE=Tanel Padar Blues Band - Gold'n'Fish
DYEAR=2016
DGENRE=Blues
TTITLE0=Goldfish
TTITLE1=Just A Little Bit
TTITLE2=Dreamgirl
TTITLE3=Shadow
TTITLE4=Break Free
TTITLE5=Evil Me
TTITLE6=The Loop Of Love
TTITLE7=Wake Me Up
TTITLE8=She Was Meant To Be
TTITLE9=Who Knows Who
TTITLE10=Is It All Right
EXTD=
EXTT0=
EXTT1=
EXTT2=
EXTT3=
EXTT4=
EXTT5=
EXTT6=
EXTT7=
EXTT8=
EXTT9=
EXTT10=
PLAYORDER=
